<svg width="14" height="14" xmlns="http://www.w3.org/2000/svg"><g fill="none" fill-rule="evenodd"><circle fill="#685037" cx="7" cy="7" r="7"/><path d="M10.294 10.873c0 .027-.02.046-.046.045-.14-.004-.282-.013-.422-.012-.186 0-.371.007-.556.012-.032.002-.05-.006-.067-.033a46.69 46.69 0 0 0-.37-.59c-.078-.124-.163-.244-.245-.366l-.843-1.244-.015-.023-.014.017a25.094 25.094 0 0 0-1.456 2.212c-.014.024-.028.028-.053.027-.132-.005-.264-.011-.396-.012-.088 0-.176.007-.263.012-.023 0-.045.003-.06-.02-.004-.01-.01-.02-.01-.029-.002-.045 0-.09 0-.136 0-.028.02-.047.047-.05.079-.006.157-.011.234-.02a.279.279 0 0 0 .153-.081c.086-.082.159-.177.228-.273l1.334-1.86.053-.074c.009-.012.009-.02.002-.034-.075-.142-.179-.263-.274-.39-.223-.303-.445-.606-.666-.91-.3-.411-.61-.813-.938-1.2-.078-.094-.158-.186-.238-.278-.01-.012-.014-.021-.008-.035a.835.835 0 0 0 .024-.075c.003-.013.01-.018.024-.017.11.004.222.01.332.008.218-.004.432-.035.633-.123a1.008 1.008 0 0 0 .633-.867c.013-.13.009-.26-.018-.388a.797.797 0 0 0-.425-.555 1.31 1.31 0 0 0-.446-.14 2.244 2.244 0 0 0-.463-.012 2.355 2.355 0 0 0-.514.092c-.014.005-.023.012-.025.028-.007.052-.018.105-.021.157-.027.41-.024.821-.024 1.233l.001 2.14c0 .174.004.348.01.521.002.094.007.186.034.277a.156.156 0 0 0 .094.105c.068.03.138.04.21.045.109.009.217.014.325.02.026.001.042.02.042.044v.143a.042.042 0 0 1-.044.044l-.642-.021a9.134 9.134 0 0 0-.669 0c-.12.005-.24.008-.36.01-.12.005-.24.008-.36.01-.031.002-.05-.016-.05-.047V8.02c0-.025.017-.043.043-.044.087-.005.175-.008.262-.015.086-.006.172-.014.254-.04a.158.158 0 0 0 .108-.107.817.817 0 0 0 .035-.201c.022-.35.014-.699.015-1.049a143.246 143.246 0 0 0-.01-2.75 1.629 1.629 0 0 0-.027-.306.175.175 0 0 0-.127-.144.871.871 0 0 0-.208-.034c-.102-.008-.203-.012-.304-.018a.044.044 0 0 1-.04-.042v-.146c0-.024.02-.044.044-.043.125.005.25.011.374.014.264.006.528.014.791.012.295-.002.59-.015.885-.021.205-.004.41-.009.616-.004.232.005.462.034.684.109.367.123.581.387.667.754.084.354-.004.678-.208.972a1.465 1.465 0 0 1-.621.5c-.19.085-.39.14-.594.18l-.032.007 1.662 2.207.017-.023c.45-.658.898-1.317 1.347-1.977.01-.016.022-.02.04-.02.132.004.265.008.398.009.087 0 .175-.006.263-.009.026 0 .049.022.049.048v.127c0 .027-.018.047-.044.05l-.168.014a.398.398 0 0 0-.261.13 2.516 2.516 0 0 0-.255.3l-.945 1.27c-.078.107-.158.212-.238.318-.025.034-.025.048-.001.083l.269.389 1.065 1.537c.078.114.148.232.226.346.046.066.1.126.152.189a.237.237 0 0 0 .174.08l.182.01c.029.002.049.022.049.05v.14M0 7a7 7 0 1 0 14.001-.001A7 7 0 0 0 0 7Z" fill="#FFE3C2"/></g></svg>